<?xml version="1.0" encoding="utf-8"?>
<!-- Generator: Adobe Illustrator 19.1.0, SVG Export Plug-In . SVG Version: 6.00 Build 0)  -->
<svg version="1.1" id="Layer_5" xmlns="http://www.w3.org/2000/svg" xmlns:xlink="http://www.w3.org/1999/xlink" x="0px" y="0px"
	 viewBox="0 0 374.5 287.3" style="enable-background:new 0 0 374.5 287.3;" xml:space="preserve">
<style type="text/css">
	.st0{fill:#D6D6D6;}
	.st1{fill:#FF0600;}
	.st2{fill:#848484;}
</style>
<g>
	<g>
		<path class="st0" d="M19.4,226.3c5.3,0.9,9.7,3.3,9.7,9.1c0,3.8-2.1,6.8-5.6,8.7c-3,1.6-6.6,2.3-11.1,2.3H0v-1.8
			c5.1-0.3,5.4-0.6,5.4-5.3v-23c0-4.6-0.2-5-4.9-5.3v-1.7H15c4.3,0,6.7,0.7,8.4,1.9c2,1.4,3.2,4,3.2,6.6
			C26.6,223.1,22.2,225.3,19.4,226.3L19.4,226.3z M12.8,225.6c6.3,0,9-2.5,9-7.2c0-3.7-2.1-7.2-7.9-7.2c-1.5,0-2.9,0.2-3.5,0.6
			c-0.5,0.4-0.7,0.9-0.7,2.8v11H12.8z M9.7,239.2c0,4.1,1.1,5.1,4.9,5.1c5-0.1,9.3-2.4,9.3-8.4c0-5.9-4.3-8.2-11.1-8.2h-3V239.2z"/>
		<path class="st0" d="M45.4,246.4V245c3.6-0.2,3.9-0.4,3.9-4.1v-17c0-3.6-0.3-3.8-3.9-4.1v-1.3h11.2v1.3c-3.6,0.3-4,0.5-4,4.1v17
			c0,3.7,0.4,3.9,4,4.1v1.3H45.4z"/>
		<path class="st0" d="M91.1,239.6c-0.2,1.3-1.1,5.5-1.5,6.8H68.9v-1.3c4-0.3,4.3-0.7,4.3-4.1v-17c0-3.8-0.3-3.9-3.8-4.2v-1.3h19.1
			c0,1,0.2,3.9,0.4,6.3l-1.4,0.1c-0.4-1.8-0.8-2.7-1.3-3.7c-0.5-0.9-1.6-1.3-4.7-1.3h-3.7c-1.3,0-1.4,0.1-1.4,1.4v9.7h4.3
			c3.9,0,4-0.4,4.6-3.3h1.4v8.2h-1.4c-0.6-3.1-0.8-3.3-4.6-3.3h-4.3v7.9c0,2,0.3,3,1.1,3.5c0.8,0.6,2.3,0.6,4.6,0.6
			c3.3,0,4.5-0.4,5.4-1.4c0.7-0.8,1.5-2.3,2.1-4L91.1,239.6z"/>
		<path class="st0" d="M117.5,225.1c-0.7-2.6-1.6-5.6-5.4-5.6c-3.4,0-4.8,2.6-4.8,4.7c0,3.3,2.1,4.6,5.4,6.3
			c3.1,1.5,7.5,3.4,7.5,8.4c0,4.6-3.8,8.1-9.4,8.1c-1.8,0-3.2-0.4-4.2-0.7c-1-0.3-1.6-0.7-2-0.8c-0.4-1-0.9-4.4-1.2-6.6l1.3-0.3
			c0.7,2.6,2.4,6.8,6.8,6.8c3.3,0,5.2-2,5.2-5.2c0-3.3-2.4-4.7-5.6-6.4c-2.5-1.3-7-3.3-7-8.2c0-4.1,3.3-7.6,8.7-7.6
			c1.7,0,3.3,0.3,5.3,1c0.1,1.5,0.4,3.2,0.7,6L117.5,225.1z"/>
		<path class="st0" d="M154.2,239.6c-0.2,1.3-1.1,5.5-1.5,6.8H132v-1.3c4-0.3,4.3-0.7,4.3-4.1v-17c0-3.8-0.3-3.9-3.8-4.2v-1.3h19.1
			c0,1,0.2,3.9,0.4,6.3l-1.4,0.1c-0.4-1.8-0.8-2.7-1.3-3.7c-0.5-0.9-1.6-1.3-4.7-1.3h-3.7c-1.3,0-1.4,0.1-1.4,1.4v9.7h4.3
			c3.9,0,4-0.4,4.6-3.3h1.4v8.2h-1.4c-0.6-3.1-0.8-3.3-4.6-3.3h-4.3v7.9c0,2,0.3,3,1.1,3.5c0.8,0.6,2.3,0.6,4.6,0.6
			c3.3,0,4.5-0.4,5.4-1.4c0.7-0.8,1.5-2.3,2.1-4L154.2,239.6z"/>
		<path class="st0" d="M191.5,246.7c-0.6,0-1.1,0-1.7,0c-2.6-0.1-4.5-1-6.6-3.9c-1.5-2.1-3.1-4.8-4.4-6.9c-0.7-1.2-1.4-1.6-3.9-1.6
			h-1.5v6.6c0,3.6,0.4,3.9,3.9,4.1v1.3h-11.1V245c3.7-0.2,4-0.4,4-4.1v-17.1c0-3.7-0.3-3.8-3.8-4v-1.3h10.5c3,0,5.1,0.4,6.7,1.4
			c1.8,1.1,2.9,3.1,2.9,5.6c0,3.7-2.2,6-5.5,7.5c0.8,1.4,2.6,4.2,3.9,6.1c1.6,2.3,2.4,3.2,3.4,4.3c1.2,1.3,2.3,1.8,3.3,2.1
			L191.5,246.7z M175.7,232.8c2.3,0,3.6-0.4,4.7-1.3c1.7-1.3,2.4-3,2.4-5.3c0-4.6-3.2-6.2-6.6-6.2c-1.3,0-2,0.2-2.3,0.4
			c-0.4,0.3-0.5,0.8-0.5,2v10.5H175.7z"/>
	</g>
</g>
<g>
	<path class="st1" d="M250.1,230.3c-3.5,0.6-3.8,0.7-3.8,4v4.8c0,1.9,0.1,3.8,0.4,5.4c-3.7,0.9-8.4,2.1-12.9,2.1
		c-12.4,0-20.7-7.9-20.7-19.1c0-13.4,10.7-19.5,21.5-19.5c4.8,0,9.3,1.2,11.1,1.7c0.2,2,0.4,5.3,0.9,9l-1.7,0.3
		c-1.5-7.2-5.8-8.8-11.1-8.8c-8.9,0-15.4,6.1-15.4,16.7c0,8.2,5,17.6,16.2,17.6c2.1,0,3.9-0.4,5.2-1.1c1.3-0.6,2-1.2,2-3.8v-4.3
		c0-4.1-0.4-4.5-6.1-5v-1.7h14.2V230.3z"/>
	<path class="st1" d="M284.6,246.2c-0.6,0-1.1,0-1.7,0c-2.6-0.1-4.5-1-6.6-3.9c-1.5-2.1-3.1-4.8-4.4-6.9c-0.7-1.2-1.4-1.6-3.9-1.6
		h-1.5v6.6c0,3.6,0.4,3.9,3.9,4.1v1.3h-11.1v-1.3c3.7-0.2,4-0.4,4-4.1v-17.1c0-3.7-0.3-3.8-3.8-4V218H270c3,0,5.1,0.4,6.7,1.4
		c1.8,1.1,2.9,3.1,2.9,5.6c0,3.7-2.2,6-5.5,7.5c0.8,1.4,2.6,4.2,3.9,6.1c1.6,2.3,2.4,3.2,3.4,4.3c1.2,1.3,2.3,1.8,3.3,2.1
		L284.6,246.2z M268.8,232.3c2.3,0,3.6-0.4,4.7-1.3c1.7-1.3,2.4-3,2.4-5.3c0-4.6-3.2-6.2-6.6-6.2c-1.3,0-2,0.2-2.3,0.4
		c-0.4,0.3-0.5,0.8-0.5,2v10.5H268.8z"/>
	<path class="st1" d="M312.4,239.1c-0.2,1.3-1.1,5.5-1.5,6.8h-20.7v-1.3c4-0.3,4.3-0.7,4.3-4.1v-17c0-3.8-0.3-3.9-3.8-4.2V218h19.1
		c0,1,0.2,3.9,0.4,6.3l-1.4,0.1c-0.4-1.8-0.8-2.7-1.3-3.7c-0.5-0.9-1.6-1.3-4.7-1.3h-3.7c-1.3,0-1.4,0.1-1.4,1.4v9.7h4.3
		c3.9,0,4-0.4,4.6-3.3h1.4v8.2h-1.4c-0.6-3.1-0.8-3.3-4.6-3.3h-4.3v7.9c0,2,0.3,3,1.1,3.5c0.8,0.6,2.3,0.6,4.6,0.6
		c3.3,0,4.5-0.4,5.4-1.4c0.7-0.8,1.5-2.3,2.1-4L312.4,239.1z"/>
	<path class="st1" d="M341.7,239.1c-0.2,1.3-1.1,5.5-1.5,6.8h-20.7v-1.3c4-0.3,4.3-0.7,4.3-4.1v-17c0-3.8-0.3-3.9-3.8-4.2V218h19.1
		c0,1,0.2,3.9,0.4,6.3l-1.4,0.1c-0.4-1.8-0.8-2.7-1.3-3.7c-0.5-0.9-1.6-1.3-4.7-1.3h-3.7c-1.3,0-1.4,0.1-1.4,1.4v9.7h4.3
		c3.9,0,4-0.4,4.6-3.3h1.4v8.2h-1.4c-0.6-3.1-0.8-3.3-4.6-3.3h-4.3v7.9c0,2,0.3,3,1.1,3.5c0.8,0.6,2.3,0.6,4.6,0.6
		c3.3,0,4.5-0.4,5.4-1.4c0.7-0.8,1.5-2.3,2.1-4L341.7,239.1z"/>
	<path class="st1" d="M374.3,246.2c-0.6,0-1.1,0-1.7,0c-2.6-0.1-4.5-1-6.6-3.9c-1.5-2.1-3.1-4.8-4.4-6.9c-0.7-1.2-1.4-1.6-3.9-1.6
		h-1.5v6.6c0,3.6,0.4,3.9,3.9,4.1v1.3h-11.1v-1.3c3.7-0.2,4-0.4,4-4.1v-17.1c0-3.7-0.3-3.8-3.8-4V218h10.5c3,0,5.1,0.4,6.7,1.4
		c1.8,1.1,2.9,3.1,2.9,5.6c0,3.7-2.2,6-5.5,7.5c0.8,1.4,2.6,4.2,3.9,6.1c1.6,2.3,2.4,3.2,3.4,4.3c1.2,1.3,2.3,1.8,3.3,2.1
		L374.3,246.2z M358.6,232.3c2.3,0,3.6-0.4,4.7-1.3c1.7-1.3,2.4-3,2.4-5.3c0-4.6-3.2-6.2-6.6-6.2c-1.3,0-2,0.2-2.3,0.4
		c-0.4,0.3-0.5,0.8-0.5,2v10.5H358.6z"/>
</g>
<g>
	<g>
		<path class="st2" d="M51.4,274.8h-7.3l-1.3,3c-0.3,0.7-0.5,1.3-0.5,1.7c0,0.3,0.1,0.5,0.4,0.8c0.3,0.2,0.9,0.4,1.8,0.4v0.5h-6
			v-0.5c0.8-0.1,1.3-0.3,1.5-0.5c0.5-0.5,1-1.4,1.6-2.7l6.7-15.6h0.5l6.6,15.8c0.5,1.3,1,2.1,1.4,2.5c0.4,0.4,1,0.6,1.8,0.6v0.5
			h-7.5v-0.5c0.8,0,1.3-0.2,1.5-0.4c0.3-0.2,0.4-0.5,0.4-0.8c0-0.4-0.2-1-0.6-1.9L51.4,274.8z M51,273.7l-3.2-7.7l-3.3,7.7H51z"/>
		<path class="st2" d="M70.8,264.1v4.2h3v1h-3v8.3c0,0.8,0.1,1.4,0.4,1.7c0.2,0.3,0.5,0.4,0.9,0.4c0.3,0,0.6-0.1,0.9-0.3
			c0.3-0.2,0.5-0.5,0.7-0.9h0.5c-0.3,0.9-0.8,1.6-1.4,2.1c-0.6,0.5-1.2,0.7-1.8,0.7c-0.4,0-0.9-0.1-1.3-0.4s-0.7-0.6-0.9-1
			c-0.2-0.4-0.3-1.1-0.3-2.1v-8.6h-2v-0.5c0.5-0.2,1-0.5,1.6-1c0.5-0.5,1-1.1,1.4-1.7c0.2-0.3,0.5-1,0.9-1.9H70.8z"/>
		<path class="st2" d="M85.8,264.1v4.2h3v1h-3v8.3c0,0.8,0.1,1.4,0.4,1.7c0.2,0.3,0.5,0.4,0.9,0.4c0.3,0,0.6-0.1,0.9-0.3
			c0.3-0.2,0.5-0.5,0.7-0.9h0.5c-0.3,0.9-0.8,1.6-1.4,2.1c-0.6,0.5-1.2,0.7-1.8,0.7c-0.4,0-0.9-0.1-1.3-0.4c-0.4-0.2-0.7-0.6-0.9-1
			c-0.2-0.4-0.3-1.1-0.3-2.1v-8.6h-2v-0.5c0.5-0.2,1-0.5,1.6-1c0.5-0.5,1-1.1,1.4-1.7c0.2-0.3,0.5-1,0.9-1.9H85.8z"/>
		<path class="st2" d="M103.5,267.9c1.9,0,3.5,0.7,4.7,2.2c1,1.3,1.5,2.7,1.5,4.3c0,1.1-0.3,2.3-0.8,3.5c-0.6,1.2-1.3,2.1-2.3,2.7
			c-1,0.6-2,0.9-3.2,0.9c-1.9,0-3.5-0.8-4.6-2.3c-1-1.3-1.4-2.8-1.4-4.4c0-1.2,0.3-2.4,0.9-3.5c0.6-1.2,1.3-2,2.3-2.6
			C101.4,268.2,102.4,267.9,103.5,267.9z M103,268.8c-0.5,0-1,0.1-1.5,0.4c-0.5,0.3-0.9,0.8-1.2,1.5c-0.3,0.7-0.5,1.7-0.5,2.8
			c0,1.9,0.4,3.5,1.1,4.8c0.7,1.4,1.7,2,2.9,2c0.9,0,1.6-0.4,2.2-1.1c0.6-0.7,0.9-2,0.9-3.8c0-2.3-0.5-4.1-1.5-5.4
			C104.9,269.3,104.1,268.8,103,268.8z"/>
		<path class="st2" d="M122.4,267.9v2.9c1.1-1.9,2.2-2.9,3.3-2.9c0.5,0,0.9,0.2,1.3,0.5c0.3,0.3,0.5,0.7,0.5,1.1
			c0,0.4-0.1,0.7-0.4,0.9c-0.2,0.2-0.5,0.4-0.9,0.4c-0.3,0-0.7-0.2-1.1-0.5c-0.4-0.3-0.7-0.5-0.9-0.5c-0.2,0-0.4,0.1-0.6,0.3
			c-0.4,0.4-0.9,1-1.3,1.9v6.2c0,0.7,0.1,1.2,0.3,1.6c0.1,0.3,0.3,0.5,0.6,0.6s0.8,0.3,1.3,0.3v0.5h-6.6v-0.5c0.7,0,1.1-0.1,1.4-0.3
			c0.2-0.2,0.4-0.4,0.5-0.7c0-0.2,0.1-0.6,0.1-1.4v-5c0-1.5,0-2.4-0.1-2.7c-0.1-0.3-0.2-0.5-0.3-0.6c-0.2-0.1-0.4-0.2-0.6-0.2
			c-0.3,0-0.6,0.1-1,0.2l-0.2-0.5l3.9-1.6H122.4z"/>
		<path class="st2" d="M139,270.6c1.5-1.8,2.9-2.7,4.3-2.7c0.7,0,1.3,0.2,1.8,0.5c0.5,0.3,0.9,0.9,1.2,1.7c0.2,0.6,0.3,1.4,0.3,2.6
			v5.5c0,0.8,0.1,1.4,0.2,1.7c0.1,0.2,0.3,0.4,0.5,0.5c0.2,0.1,0.6,0.2,1.3,0.2v0.5h-6.3v-0.5h0.3c0.6,0,1-0.1,1.2-0.3
			c0.2-0.2,0.4-0.4,0.5-0.8c0-0.1,0.1-0.6,0.1-1.3V273c0-1.2-0.2-2-0.5-2.5c-0.3-0.5-0.8-0.8-1.5-0.8c-1.1,0-2.2,0.6-3.3,1.8v6.7
			c0,0.9,0.1,1.4,0.2,1.6c0.1,0.3,0.3,0.5,0.5,0.6c0.2,0.1,0.7,0.2,1.4,0.2v0.5h-6.3v-0.5h0.3c0.6,0,1.1-0.2,1.3-0.5
			c0.2-0.3,0.3-1,0.3-1.9v-4.7c0-1.5,0-2.5-0.1-2.8c-0.1-0.3-0.2-0.6-0.3-0.7c-0.1-0.1-0.3-0.2-0.6-0.2c-0.3,0-0.6,0.1-0.9,0.2
			l-0.2-0.5l3.9-1.6h0.6V270.6z"/>
		<path class="st2" d="M158.9,273.1c0,1.9,0.5,3.4,1.4,4.5c0.9,1.1,2,1.6,3.3,1.6c0.8,0,1.6-0.2,2.2-0.7c0.6-0.5,1.1-1.2,1.6-2.4
			l0.4,0.3c-0.2,1.3-0.8,2.4-1.7,3.5c-0.9,1.1-2.1,1.6-3.5,1.6c-1.5,0-2.9-0.6-4-1.8c-1.1-1.2-1.6-2.8-1.6-4.8
			c0-2.2,0.6-3.9,1.7-5.1s2.5-1.8,4.2-1.8c1.4,0,2.6,0.5,3.5,1.4c0.9,0.9,1.4,2.2,1.4,3.8H158.9z M158.9,272.3h5.9
			c0-0.8-0.1-1.4-0.3-1.7c-0.2-0.5-0.6-0.9-1-1.2c-0.5-0.3-0.9-0.5-1.4-0.5c-0.8,0-1.5,0.3-2.1,0.9
			C159.4,270.4,159,271.2,158.9,272.3z"/>
		<path class="st2" d="M175.9,268.3h6v0.5h-0.3c-0.4,0-0.7,0.1-0.9,0.3c-0.2,0.2-0.3,0.4-0.3,0.7c0,0.4,0.2,0.9,0.5,1.5l3.1,6.5
			l2.9-7.1c0.2-0.4,0.2-0.8,0.2-1.1c0-0.2,0-0.3-0.1-0.4c-0.1-0.1-0.2-0.2-0.3-0.3c-0.2-0.1-0.4-0.1-0.8-0.1v-0.5h4.2v0.5
			c-0.3,0-0.6,0.1-0.8,0.2c-0.2,0.1-0.4,0.3-0.6,0.6c-0.1,0.1-0.2,0.5-0.5,1.1l-5.2,12.8c-0.5,1.2-1.2,2.2-2,2.8
			c-0.8,0.6-1.6,1-2.4,1c-0.5,0-1-0.2-1.4-0.5c-0.4-0.3-0.5-0.7-0.5-1.1c0-0.4,0.1-0.7,0.4-0.9c0.3-0.2,0.6-0.4,1.1-0.4
			c0.3,0,0.7,0.1,1.3,0.3c0.4,0.2,0.6,0.2,0.7,0.2c0.3,0,0.6-0.1,0.9-0.4c0.3-0.3,0.7-0.9,1-1.7l0.9-2.2l-4.6-9.7
			c-0.1-0.3-0.4-0.6-0.7-1.1c-0.2-0.3-0.4-0.5-0.6-0.7c-0.2-0.1-0.6-0.3-1-0.4V268.3z"/>
		<path class="st2" d="M206.4,267.9v4.4h-0.5c-0.4-1.4-0.8-2.3-1.4-2.8c-0.6-0.5-1.3-0.7-2.1-0.7c-0.7,0-1.2,0.2-1.6,0.5
			c-0.4,0.3-0.6,0.7-0.6,1.1c0,0.5,0.2,1,0.5,1.3c0.3,0.4,0.9,0.8,1.8,1.2l2,1c1.9,0.9,2.9,2.1,2.9,3.7c0,1.2-0.4,2.1-1.3,2.8
			c-0.9,0.7-1.9,1.1-3,1.1c-0.8,0-1.7-0.1-2.7-0.4c-0.3-0.1-0.6-0.1-0.8-0.1c-0.2,0-0.4,0.1-0.5,0.4h-0.5v-4.6h0.5
			c0.3,1.3,0.8,2.3,1.5,3s1.6,1,2.5,1c0.6,0,1.2-0.2,1.6-0.6c0.4-0.4,0.6-0.8,0.6-1.4c0-0.6-0.2-1.2-0.7-1.6c-0.5-0.4-1.4-1-2.7-1.7
			c-1.4-0.7-2.2-1.3-2.7-1.8c-0.4-0.5-0.6-1.2-0.6-2c0-1.1,0.4-1.9,1.1-2.6c0.7-0.7,1.7-1.1,2.8-1.1c0.5,0,1.1,0.1,1.8,0.3
			c0.5,0.1,0.8,0.2,0.9,0.2c0.2,0,0.3,0,0.4-0.1c0.1-0.1,0.2-0.2,0.3-0.4H206.4z"/>
		<path class="st2" d="M237.9,279.3c-1.3,1-2.1,1.6-2.5,1.8c-0.5,0.2-1,0.3-1.6,0.3c-0.9,0-1.6-0.3-2.2-0.9
			c-0.6-0.6-0.9-1.4-0.9-2.4c0-0.6,0.1-1.2,0.4-1.6c0.4-0.6,1-1.2,2-1.8c0.9-0.6,2.5-1.2,4.7-2.1v-0.5c0-1.3-0.2-2.2-0.6-2.6
			c-0.4-0.5-1-0.7-1.8-0.7c-0.6,0-1,0.2-1.4,0.5c-0.4,0.3-0.5,0.7-0.5,1.1l0,0.8c0,0.4-0.1,0.8-0.3,1s-0.5,0.3-0.9,0.3
			s-0.6-0.1-0.9-0.4c-0.2-0.2-0.3-0.6-0.3-1c0-0.8,0.4-1.5,1.2-2.2c0.8-0.7,2-1,3.5-1c1.1,0,2.1,0.2,2.8,0.6c0.5,0.3,1,0.7,1.2,1.4
			c0.2,0.4,0.2,1.2,0.2,2.5v4.3c0,1.2,0,2,0.1,2.2c0,0.3,0.1,0.5,0.2,0.6c0.1,0.1,0.2,0.1,0.4,0.1c0.1,0,0.3,0,0.4-0.1
			c0.2-0.1,0.6-0.5,1.1-1v0.8c-1.1,1.4-2.1,2.1-3,2.1c-0.5,0-0.8-0.2-1.1-0.5C238.1,280.6,237.9,280,237.9,279.3z M237.9,278.4v-4.9
			c-1.4,0.6-2.3,1-2.7,1.2c-0.7,0.4-1.3,0.8-1.6,1.3c-0.3,0.5-0.5,0.9-0.5,1.5c0,0.7,0.2,1.2,0.6,1.7c0.4,0.4,0.9,0.7,1.4,0.7
			C235.8,279.8,236.7,279.3,237.9,278.4z"/>
		<path class="st2" d="M254.2,264.1v4.2h3v1h-3v8.3c0,0.8,0.1,1.4,0.4,1.7c0.2,0.3,0.5,0.4,0.9,0.4c0.3,0,0.6-0.1,0.9-0.3
			c0.3-0.2,0.5-0.5,0.7-0.9h0.5c-0.3,0.9-0.8,1.6-1.4,2.1c-0.6,0.5-1.2,0.7-1.8,0.7c-0.4,0-0.9-0.1-1.3-0.4s-0.7-0.6-0.9-1
			c-0.2-0.4-0.3-1.1-0.3-2.1v-8.6h-2v-0.5c0.5-0.2,1-0.5,1.6-1c0.5-0.5,1-1.1,1.4-1.7c0.2-0.3,0.5-1,0.9-1.9H254.2z"/>
		<path class="st2" d="M295.4,275.9l0.5,0.1l-1.6,5.1h-14.7v-0.5h0.7c0.8,0,1.4-0.3,1.7-0.8c0.2-0.3,0.3-1,0.3-2.1v-12.2
			c0-1.2-0.1-1.9-0.4-2.2c-0.4-0.4-0.9-0.6-1.6-0.6h-0.7v-0.5h8.6v0.5c-1,0-1.7,0.1-2.1,0.3c-0.4,0.2-0.7,0.4-0.8,0.7
			c-0.1,0.3-0.2,1-0.2,2.1v11.9c0,0.8,0.1,1.3,0.2,1.6c0.1,0.2,0.3,0.3,0.5,0.4c0.2,0.1,1,0.1,2.2,0.1h1.4c1.5,0,2.5-0.1,3.1-0.3
			c0.6-0.2,1.1-0.6,1.6-1.1C294.4,277.9,294.9,277.1,295.4,275.9z"/>
		<path class="st2" d="M311.8,279.3c-1.3,1-2.1,1.6-2.5,1.8c-0.5,0.2-1,0.3-1.6,0.3c-0.9,0-1.6-0.3-2.2-0.9
			c-0.6-0.6-0.9-1.4-0.9-2.4c0-0.6,0.1-1.2,0.4-1.6c0.4-0.6,1-1.2,2-1.8s2.5-1.2,4.7-2.1v-0.5c0-1.3-0.2-2.2-0.6-2.6
			c-0.4-0.5-1-0.7-1.8-0.7c-0.6,0-1,0.2-1.4,0.5c-0.4,0.3-0.5,0.7-0.5,1.1l0,0.8c0,0.4-0.1,0.8-0.3,1s-0.5,0.3-0.9,0.3
			s-0.6-0.1-0.9-0.4c-0.2-0.2-0.3-0.6-0.3-1c0-0.8,0.4-1.5,1.2-2.2c0.8-0.7,2-1,3.5-1c1.1,0,2.1,0.2,2.8,0.6c0.5,0.3,1,0.7,1.2,1.4
			c0.2,0.4,0.2,1.2,0.2,2.5v4.3c0,1.2,0,2,0.1,2.2c0,0.3,0.1,0.5,0.2,0.6c0.1,0.1,0.2,0.1,0.4,0.1c0.1,0,0.3,0,0.4-0.1
			c0.2-0.1,0.6-0.5,1.1-1v0.8c-1.1,1.4-2.1,2.1-3,2.1c-0.5,0-0.8-0.2-1.1-0.5C311.9,280.6,311.8,280,311.8,279.3z M311.8,278.4v-4.9
			c-1.4,0.6-2.3,1-2.7,1.2c-0.7,0.4-1.3,0.8-1.6,1.3c-0.3,0.5-0.5,0.9-0.5,1.5c0,0.7,0.2,1.2,0.6,1.7c0.4,0.4,0.9,0.7,1.4,0.7
			C309.7,279.8,310.6,279.3,311.8,278.4z"/>
		<path class="st2" d="M323.6,268.3h5.4v0.5c-0.5,0-0.8,0.1-1,0.3c-0.2,0.1-0.2,0.3-0.2,0.6c0,0.3,0.1,0.6,0.2,1.1l2.7,7.4l2.7-6
			l-0.7-1.9c-0.2-0.6-0.5-0.9-0.9-1.2c-0.2-0.1-0.6-0.2-1.1-0.2v-0.5h6.1v0.5c-0.7,0-1.1,0.2-1.4,0.4c-0.2,0.1-0.3,0.4-0.3,0.7
			c0,0.2,0,0.4,0.1,0.6l2.9,7.4l2.7-7.1c0.2-0.5,0.3-0.9,0.3-1.2c0-0.2-0.1-0.3-0.3-0.5c-0.2-0.1-0.5-0.2-1.1-0.2v-0.5h4v0.5
			c-0.8,0.1-1.4,0.7-1.8,1.7l-4.3,11.1h-0.6l-3.2-8.2l-3.7,8.2h-0.5l-4.1-10.8c-0.3-0.7-0.5-1.1-0.8-1.4c-0.3-0.2-0.7-0.4-1.2-0.5
			V268.3z"/>
	</g>
</g>
<rect x="211.6" y="-0.3" class="st2" width="38.8" height="192.3"/>
<polygon class="st1" points="161.8,192 203.5,192 203.5,0 161.8,68.1 "/>
<rect x="102.5" y="68" class="st0" width="51.1" height="124"/>
</svg>
